<svg width="183" height="229" viewBox="0 0 183 229" fill="none" xmlns="http://www.w3.org/2000/svg">
<path d="M182.641 125.571C182.641 182.646 142.688 211.183 95.2014 227.735C92.7148 228.578 90.0137 228.538 87.5534 227.621C39.9526 211.183 0 182.646 0 125.571V45.6653C0 42.6378 1.20265 39.7344 3.34339 37.5936C5.48413 35.4529 8.38758 34.2503 11.415 34.2503C34.2451 34.2503 62.7827 20.5522 82.6449 3.20134C85.0632 1.13521 88.1395 0 91.3203 0C94.5011 0 97.5774 1.13521 99.9957 3.20134C119.972 20.6664 148.396 34.2503 171.226 34.2503C174.253 34.2503 177.157 35.4529 179.297 37.5936C181.438 39.7344 182.641 42.6378 182.641 45.6653V125.571Z" fill="#635CFF"/>
<path d="M91.2966 63.1709C102.356 63.1709 112.962 67.564 120.782 75.3838C128.602 83.2038 132.996 93.81 132.996 104.869C132.996 117.998 125.801 130.828 118.14 140.894C110.372 151.1 101.535 159.222 97.1091 163.043C97.0303 163.111 96.9492 163.177 96.866 163.239C95.2603 164.447 93.3055 165.1 91.2966 165.1C89.2879 165.1 87.3328 164.447 85.7273 163.239C85.6442 163.177 85.5628 163.111 85.4841 163.043C81.0584 159.222 72.2207 151.1 64.4529 140.894C56.7923 130.828 49.5984 117.998 49.5984 104.869C49.5985 93.8101 53.9914 83.2038 61.8113 75.3838C69.6312 67.5639 80.2376 63.171 91.2966 63.1709ZM91.2976 86.3369C81.0625 86.337 72.7657 94.6341 72.7654 104.869C72.7654 115.104 81.0623 123.402 91.2976 123.402C101.533 123.402 109.831 115.104 109.831 104.869C109.83 94.6341 101.533 86.337 91.2976 86.3369Z" fill="white"/>
</svg>
